# xmcd CD database file
#
# Track frame offsets:
#	150
#	16510
#	38310
#	53187
#	69442
#	85585
#	107360
#	124350
#	144675
#	160310
#	181060
#	193597
#	210525
#	224760
#
# Disc length: 3201 seconds
#
# Revision: 0
# Processed by: cddbd v1.4PL0 Copyright (c) Steve Scherf et al.
# Submitted via: Feurio! 1.65 - http://www.feurio.com
#
DISCID=b80c7f0e
DTITLE=Have Mercy - Have Mercy Rory Mc Leod Henry Heggen Dick Bird Brian 
DTITLE=Barnett Steve baker
DYEAR=1993
DGENRE=Blues
TTITLE0=Rusty Cars And Lonely Bars
TTITLE1=I Keep Rolling
TTITLE2=Rambling Girl
TTITLE3=Going To Germany
TTITLE4=Let Yourself Go
TTITLE5=One Track Mind
TTITLE6=Run Molly Run
TTITLE7=It's Hard Being A Man
TTITLE8=Georgia Rag
TTITLE9=Let It Shine On Me
TTITLE10=Walk Right In
TTITLE11=The Blues Never Goes Away
TTITLE12=The Stuff You Gotta Watch
TTITLE13=Rock Island Line
EXTD=ARD CrossCut Records 1993 CCD 11039
EXTT0=
EXTT1=
EXTT2=
EXTT3=
EXTT4=
EXTT5=
EXTT6=
EXTT7=
EXTT8=
EXTT9=
EXTT10=
EXTT11=
EXTT12=
EXTT13=
PLAYORDER=
